<svg width="12" height="13" viewBox="0 0 12 13" fill="none" xmlns="http://www.w3.org/2000/svg">
<path d="M6 1.25C4.90638 1.25129 3.85792 1.6863 3.08461 2.45961C2.31131 3.23292 1.87629 4.28138 1.875 5.375C1.87369 6.26871 2.16562 7.13817 2.706 7.85C2.706 7.85 2.8185 7.99813 2.83688 8.0195L6 11.75L9.16463 8.01763C9.18113 7.99775 9.294 7.85 9.294 7.85L9.29438 7.84888C9.83449 7.13735 10.1263 6.2683 10.125 5.375C10.1237 4.28138 9.6887 3.23292 8.91539 2.45961C8.14209 1.6863 7.09363 1.25129 6 1.25ZM6 6.875C5.70333 6.875 5.41332 6.78703 5.16665 6.6222C4.91998 6.45738 4.72772 6.22311 4.61419 5.94903C4.50065 5.67494 4.47095 5.37334 4.52883 5.08236C4.5867 4.79139 4.72957 4.52412 4.93934 4.31434C5.14912 4.10456 5.4164 3.9617 5.70737 3.90382C5.99834 3.84594 6.29994 3.87565 6.57403 3.98918C6.84812 4.10271 7.08239 4.29497 7.24721 4.54164C7.41203 4.78832 7.5 5.07833 7.5 5.375C7.49951 5.77267 7.34131 6.15391 7.06012 6.43511C6.77892 6.71631 6.39768 6.8745 6 6.875Z" fill="#445A65"/>
</svg>
